<svg xmlns="http://www.w3.org/2000/svg" viewBox="0 0 105.3 151.79">
  <title>Face</title>
  <g style="isolation: isolate">
    <g>
      <path d="M97.24,27.9,102.87,16H92.7L101,8.56l-21.65,3.1,6.31-9-28.78,4L67,0S24,10.1,16.78,16,2.13,39.57,2.13,39.57h0a20.14,20.14,0,0,0-1.69,6A66.5,66.5,0,0,0,.3,60S1.56,70.63,2.6,74A46.62,46.62,0,0,1,4.29,88.67a39,39,0,0,0,3.82,2.12C7.48,83.48,6.64,72.85,6.5,67.2c-.24-9.14,2.78-23.07,13-29.34s30.07.21,30.07.21,18-6.48,28.19-.21S91,58.06,90.77,67.2c-.16,6.15-1.15,18.21-1.77,25.44.47-.49.94-1,1.39-1.47.82-.9,1.66-1.79,2.56-2.62A98.16,98.16,0,0,1,94.66,74c.63-3.49,2.3-14,2.3-14l8.34-30.21Z" fill="#212121"/>
      <path d="M92.63,93.31l-2.83-.13s-1.13,19.92-3.19,24.26-22.68,19.33-27.15,18-4.81-6.67-4.81-6.67l-6.53-.33H48l-6.53.33s-.34,5.33-4.81,6.67-25.08-13.67-27.14-18S6.3,93.18,6.3,93.18l-2.83.13C3.3,101.85,5,134.77,12.23,141.1c6.62,5.81,31.1,9.93,35.16,10.58a1.9,1.9,0,0,0,1.29,0c4-.63,28.55-4.76,35.18-10.58C91.08,134.77,92.8,101.85,92.63,93.31Z" fill="#212121"/>
      <g>
        <path d="M37.1,122.25s14.85-2.46,24.59,0Z" fill="#616261" opacity="0.7" style="mix-blend-mode: multiply"/>
        <path d="M25.45,108.56s21,15.06,48.1-3.72C73.54,104.84,51.64,116.8,25.45,108.56Z" fill="#616261" opacity="0.7" style="mix-blend-mode: multiply"/>
      </g>
      <path d="M74.24,61.3c-12.82,0-19.29,3.45-26.19,3.45S34.67,61.3,21.85,61.3A78.16,78.16,0,0,0,.74,64.65v6.8a2.26,2.26,0,0,1,2.35,2.11c1,12.71,5,22.25,17.51,22.25,13.46,0,18.66-5.85,21.12-13.43h0c1.92-5.41,4.09-9.75,6.33-9.75s4.4,4.34,6.33,9.75h0C56.84,90,62,95.81,75.5,95.81,88,95.81,92,86.27,93,73.56a2.25,2.25,0,0,1,2.34-2.11v-6.8A78.07,78.07,0,0,0,74.24,61.3ZM3.94,68.47c-1.09,0-1.66-.43-1.66-1s.57-1,1.66-1,1.66.44,1.66,1S5,68.47,3.94,68.47ZM21.53,93.7C9.8,93.7,6.2,85.54,5.68,74.54c-.36-7.62,7.59-10.66,17-10.66s18,1.93,18,9.84C40.63,82.61,35.41,93.7,21.53,93.7ZM90.42,74.54c-.52,11-4.13,19.16-15.86,19.16-13.87,0-19.1-11.09-19.1-20,0-7.91,8.64-9.84,18-9.84S90.78,66.92,90.42,74.54Zm1.73-6.07c-1.09,0-1.66-.43-1.66-1s.57-1,1.66-1,1.67.44,1.67,1S93.25,68.47,92.15,68.47Z" fill="#757576"/>
    </g>
  </g>
</svg>
